<svg xmlns="http://www.w3.org/2000/svg" xmlns:xlink="http://www.w3.org/1999/xlink" width="500" zoomAndPan="magnify" viewBox="0 0 375 374.999991" height="500" preserveAspectRatio="xMidYMid meet" version="1.0"><defs><g/></defs><rect x="-37.5" width="450" fill="#ffffff" y="-37.499999" height="449.999989" fill-opacity="1"/><rect x="-37.5" width="450" fill="#ffffff" y="-37.499999" height="449.999989" fill-opacity="1"/><rect x="-37.5" width="450" fill="#003580" y="-37.499999" height="449.999989" fill-opacity="1"/><g fill="#fdfee9" fill-opacity="1"><g transform="translate(61.254977, 234.358007)"><g><path d="M 7.390625 -9.875 L 7.390625 0 L 1.78125 0 L 1.78125 -24.59375 L 7.390625 -24.59375 L 7.390625 -14.78125 L 15.328125 -14.78125 L 15.328125 -24.59375 L 20.921875 -24.59375 L 20.921875 0 L 15.328125 0 L 15.328125 -9.875 Z M 7.390625 -9.875 "/></g></g></g><g fill="#fdfee9" fill-opacity="1"><g transform="translate(93.204527, 234.358007)"><g><path d="M 0.6875 -12.3125 C 0.6875 -15.875 1.894531 -18.882812 4.3125 -21.34375 C 6.738281 -23.8125 9.664062 -25.046875 13.09375 -25.046875 C 16.53125 -25.046875 19.445312 -23.816406 21.84375 -21.359375 C 24.25 -18.898438 25.453125 -15.882812 25.453125 -12.3125 C 25.453125 -8.71875 24.269531 -5.691406 21.90625 -3.234375 C 19.539062 -0.773438 16.601562 0.453125 13.09375 0.453125 C 9.488281 0.453125 6.519531 -0.765625 4.1875 -3.203125 C 1.851562 -5.640625 0.6875 -8.675781 0.6875 -12.3125 Z M 6.734375 -12.3125 C 6.734375 -11.019531 6.929688 -9.84375 7.328125 -8.78125 C 7.734375 -7.71875 8.429688 -6.816406 9.421875 -6.078125 C 10.410156 -5.347656 11.632812 -4.984375 13.09375 -4.984375 C 15.175781 -4.984375 16.75 -5.695312 17.8125 -7.125 C 18.875 -8.550781 19.40625 -10.28125 19.40625 -12.3125 C 19.40625 -14.320312 18.863281 -16.046875 17.78125 -17.484375 C 16.695312 -18.921875 15.132812 -19.640625 13.09375 -19.640625 C 11.0625 -19.640625 9.492188 -18.921875 8.390625 -17.484375 C 7.285156 -16.046875 6.734375 -14.320312 6.734375 -12.3125 Z M 6.734375 -12.3125 "/></g></g></g><g fill="#fdfee9" fill-opacity="1"><g transform="translate(128.581159, 234.358007)"><g><path d="M 22.125 0 L 20.953125 -14.578125 L 20.8125 -14.578125 L 15.765625 -0.15625 L 12.4375 -0.15625 L 7.390625 -14.578125 L 7.25 -14.578125 L 6.078125 0 L 0.484375 0 L 2.6875 -24.59375 L 8.640625 -24.59375 L 14.09375 -10.40625 L 19.5625 -24.59375 L 25.515625 -24.59375 L 27.71875 0 Z M 22.125 0 "/></g></g></g><g fill="#fdfee9" fill-opacity="1"><g transform="translate(166.014048, 234.358007)"><g><path d="M 14.28125 -24.59375 L 24.203125 0 L 18.1875 0 L 16.359375 -4.921875 L 7 -4.921875 L 5.1875 0 L -0.828125 0 L 9.09375 -24.59375 Z M 14.453125 -9.84375 L 11.71875 -17 L 11.65625 -17 L 8.90625 -9.84375 Z M 14.453125 -9.84375 "/></g></g></g><g fill="#fdfee9" fill-opacity="1"><g transform="translate(198.619225, 234.358007)"><g><path d="M 0.234375 -19.671875 L 0.234375 -24.59375 L 17.53125 -24.59375 L 17.53125 -19.671875 L 11.6875 -19.671875 L 11.6875 0 L 6.078125 0 L 6.078125 -19.671875 Z M 0.234375 -19.671875 "/></g></g></g><g fill="#fdfee9" fill-opacity="1"><g transform="translate(225.621855, 234.358007)"><g><path d="M 0.6875 -12.3125 C 0.6875 -15.875 1.894531 -18.882812 4.3125 -21.34375 C 6.738281 -23.8125 9.664062 -25.046875 13.09375 -25.046875 C 16.53125 -25.046875 19.445312 -23.816406 21.84375 -21.359375 C 24.25 -18.898438 25.453125 -15.882812 25.453125 -12.3125 C 25.453125 -8.71875 24.269531 -5.691406 21.90625 -3.234375 C 19.539062 -0.773438 16.601562 0.453125 13.09375 0.453125 C 9.488281 0.453125 6.519531 -0.765625 4.1875 -3.203125 C 1.851562 -5.640625 0.6875 -8.675781 0.6875 -12.3125 Z M 6.734375 -12.3125 C 6.734375 -11.019531 6.929688 -9.84375 7.328125 -8.78125 C 7.734375 -7.71875 8.429688 -6.816406 9.421875 -6.078125 C 10.410156 -5.347656 11.632812 -4.984375 13.09375 -4.984375 C 15.175781 -4.984375 16.75 -5.695312 17.8125 -7.125 C 18.875 -8.550781 19.40625 -10.28125 19.40625 -12.3125 C 19.40625 -14.320312 18.863281 -16.046875 17.78125 -17.484375 C 16.695312 -18.921875 15.132812 -19.640625 13.09375 -19.640625 C 11.0625 -19.640625 9.492188 -18.921875 8.390625 -17.484375 C 7.285156 -16.046875 6.734375 -14.320312 6.734375 -12.3125 Z M 6.734375 -12.3125 "/></g></g></g><g fill="#fdfee9" fill-opacity="1"><g transform="translate(260.998494, 234.358007)"><g><path d="M 20.6875 -24.59375 L 20.6875 -8.734375 C 20.6875 -5.710938 19.867188 -3.425781 18.234375 -1.875 C 16.609375 -0.320312 14.222656 0.453125 11.078125 0.453125 C 7.941406 0.453125 5.554688 -0.320312 3.921875 -1.875 C 2.296875 -3.425781 1.484375 -5.710938 1.484375 -8.734375 L 1.484375 -24.59375 L 7.09375 -24.59375 L 7.09375 -10.375 C 7.09375 -8.382812 7.40625 -7 8.03125 -6.21875 C 8.65625 -5.445312 9.671875 -5.0625 11.078125 -5.0625 C 12.492188 -5.0625 13.515625 -5.445312 14.140625 -6.21875 C 14.765625 -7 15.078125 -8.382812 15.078125 -10.375 L 15.078125 -24.59375 Z M 20.6875 -24.59375 "/></g></g></g><g fill="#fdfee9" fill-opacity="1"><g transform="translate(292.411631, 234.358007)"><g><path d="M 1.78125 -24.59375 L 10.578125 -24.59375 C 12.941406 -24.59375 14.867188 -23.960938 16.359375 -22.703125 C 17.859375 -21.441406 18.609375 -19.640625 18.609375 -17.296875 C 18.609375 -15.484375 18.15625 -13.960938 17.25 -12.734375 C 16.34375 -11.515625 15.113281 -10.660156 13.5625 -10.171875 L 22.03125 0 L 14.90625 0 L 7.390625 -9.71875 L 7.390625 0 L 1.78125 0 Z M 7.390625 -13.6875 L 8.046875 -13.6875 C 8.566406 -13.6875 9.003906 -13.695312 9.359375 -13.71875 C 9.710938 -13.738281 10.117188 -13.804688 10.578125 -13.921875 C 11.035156 -14.035156 11.40625 -14.203125 11.6875 -14.421875 C 11.96875 -14.640625 12.207031 -14.957031 12.40625 -15.375 C 12.601562 -15.800781 12.703125 -16.3125 12.703125 -16.90625 C 12.703125 -17.5 12.601562 -18.003906 12.40625 -18.421875 C 12.207031 -18.835938 11.96875 -19.15625 11.6875 -19.375 C 11.40625 -19.59375 11.035156 -19.757812 10.578125 -19.875 C 10.117188 -20 9.710938 -20.070312 9.359375 -20.09375 C 9.003906 -20.113281 8.566406 -20.125 8.046875 -20.125 L 7.390625 -20.125 Z M 7.390625 -13.6875 "/></g></g></g><g fill="#fdfee9" fill-opacity="1"><g transform="translate(102.626917, 256.172707)"><g><path d="M 1.15625 -5.828125 L 1.84375 -11.84375 L 8.46875 -11.84375 L 8.46875 -9.875 L 3.765625 -9.875 L 3.46875 -7.328125 C 4.03125 -7.628906 4.625 -7.78125 5.25 -7.78125 C 6.382812 -7.78125 7.269531 -7.429688 7.90625 -6.734375 C 8.539062 -6.035156 8.859375 -5.054688 8.859375 -3.796875 C 8.859375 -3.035156 8.695312 -2.351562 8.375 -1.75 C 8.050781 -1.144531 7.585938 -0.675781 6.984375 -0.34375 C 6.390625 -0.0078125 5.679688 0.15625 4.859375 0.15625 C 4.148438 0.15625 3.488281 0.015625 2.875 -0.265625 C 2.257812 -0.554688 1.773438 -0.960938 1.421875 -1.484375 C 1.066406 -2.015625 0.878906 -2.617188 0.859375 -3.296875 L 3.1875 -3.296875 C 3.226562 -2.796875 3.394531 -2.410156 3.6875 -2.140625 C 3.988281 -1.867188 4.378906 -1.734375 4.859375 -1.734375 C 5.390625 -1.734375 5.796875 -1.921875 6.078125 -2.296875 C 6.367188 -2.679688 6.515625 -3.222656 6.515625 -3.921875 C 6.515625 -4.597656 6.347656 -5.113281 6.015625 -5.46875 C 5.679688 -5.832031 5.210938 -6.015625 4.609375 -6.015625 C 4.054688 -6.015625 3.601562 -5.867188 3.25 -5.578125 L 3.03125 -5.359375 Z M 1.15625 -5.828125 "/></g></g></g><g fill="#fdfee9" fill-opacity="1"><g transform="translate(125.509878, 256.172707)"><g><path d="M 6.515625 0 L 4.171875 0 L 4.171875 -9.0625 L 1.359375 -8.1875 L 1.359375 -10.09375 L 6.265625 -11.859375 L 6.515625 -11.859375 Z M 6.515625 0 "/></g></g></g><g fill="#fdfee9" fill-opacity="1"><g transform="translate(148.392838, 256.172707)"><g><path d="M 6.296875 -4.734375 C 5.691406 -4.128906 4.976562 -3.828125 4.15625 -3.828125 C 3.113281 -3.828125 2.273438 -4.1875 1.640625 -4.90625 C 1.015625 -5.625 0.703125 -6.59375 0.703125 -7.8125 C 0.703125 -8.59375 0.867188 -9.304688 1.203125 -9.953125 C 1.546875 -10.597656 2.019531 -11.097656 2.625 -11.453125 C 3.226562 -11.816406 3.910156 -12 4.671875 -12 C 5.453125 -12 6.144531 -11.800781 6.75 -11.40625 C 7.363281 -11.019531 7.835938 -10.460938 8.171875 -9.734375 C 8.503906 -9.003906 8.675781 -8.164062 8.6875 -7.21875 L 8.6875 -6.359375 C 8.6875 -4.378906 8.191406 -2.828125 7.203125 -1.703125 C 6.222656 -0.578125 4.835938 0.0234375 3.046875 0.109375 L 2.46875 0.109375 L 2.46875 -1.84375 L 2.984375 -1.859375 C 5.023438 -1.953125 6.128906 -2.910156 6.296875 -4.734375 Z M 4.734375 -5.625 C 5.109375 -5.625 5.429688 -5.722656 5.703125 -5.921875 C 5.984375 -6.117188 6.191406 -6.351562 6.328125 -6.625 L 6.328125 -7.59375 C 6.328125 -8.394531 6.175781 -9.015625 5.875 -9.453125 C 5.570312 -9.890625 5.164062 -10.109375 4.65625 -10.109375 C 4.1875 -10.109375 3.800781 -9.890625 3.5 -9.453125 C 3.195312 -9.023438 3.046875 -8.488281 3.046875 -7.84375 C 3.046875 -7.195312 3.191406 -6.664062 3.484375 -6.25 C 3.773438 -5.832031 4.191406 -5.625 4.734375 -5.625 Z M 4.734375 -5.625 "/></g></g></g><g fill="#fdfee9" fill-opacity="1"><g transform="translate(171.275796, 256.172707)"><g><path d="M 8.78125 -4.890625 C 8.78125 -3.253906 8.441406 -2.003906 7.765625 -1.140625 C 7.085938 -0.273438 6.09375 0.15625 4.78125 0.15625 C 3.488281 0.15625 2.5 -0.265625 1.8125 -1.109375 C 1.132812 -1.960938 0.785156 -3.1875 0.765625 -4.78125 L 0.765625 -6.953125 C 0.765625 -8.609375 1.109375 -9.863281 1.796875 -10.71875 C 2.484375 -11.570312 3.472656 -12 4.765625 -12 C 6.054688 -12 7.039062 -11.570312 7.71875 -10.71875 C 8.40625 -9.875 8.757812 -8.660156 8.78125 -7.078125 Z M 6.421875 -7.28125 C 6.421875 -8.269531 6.285156 -8.984375 6.015625 -9.421875 C 5.753906 -9.867188 5.335938 -10.09375 4.765625 -10.09375 C 4.210938 -10.09375 3.800781 -9.878906 3.53125 -9.453125 C 3.269531 -9.035156 3.132812 -8.375 3.125 -7.46875 L 3.125 -4.59375 C 3.125 -3.625 3.253906 -2.90625 3.515625 -2.4375 C 3.773438 -1.96875 4.195312 -1.734375 4.78125 -1.734375 C 5.351562 -1.734375 5.765625 -1.957031 6.015625 -2.40625 C 6.273438 -2.851562 6.410156 -3.539062 6.421875 -4.46875 Z M 6.421875 -7.28125 "/></g></g></g><g fill="#fdfee9" fill-opacity="1"><g transform="translate(194.158759, 256.172707)"><g><path d="M 8.78125 -4.890625 C 8.78125 -3.253906 8.441406 -2.003906 7.765625 -1.140625 C 7.085938 -0.273438 6.09375 0.15625 4.78125 0.15625 C 3.488281 0.15625 2.5 -0.265625 1.8125 -1.109375 C 1.132812 -1.960938 0.785156 -3.1875 0.765625 -4.78125 L 0.765625 -6.953125 C 0.765625 -8.609375 1.109375 -9.863281 1.796875 -10.71875 C 2.484375 -11.570312 3.472656 -12 4.765625 -12 C 6.054688 -12 7.039062 -11.570312 7.71875 -10.71875 C 8.40625 -9.875 8.757812 -8.660156 8.78125 -7.078125 Z M 6.421875 -7.28125 C 6.421875 -8.269531 6.285156 -8.984375 6.015625 -9.421875 C 5.753906 -9.867188 5.335938 -10.09375 4.765625 -10.09375 C 4.210938 -10.09375 3.800781 -9.878906 3.53125 -9.453125 C 3.269531 -9.035156 3.132812 -8.375 3.125 -7.46875 L 3.125 -4.59375 C 3.125 -3.625 3.253906 -2.90625 3.515625 -2.4375 C 3.773438 -1.96875 4.195312 -1.734375 4.78125 -1.734375 C 5.351562 -1.734375 5.765625 -1.957031 6.015625 -2.40625 C 6.273438 -2.851562 6.410156 -3.539062 6.421875 -4.46875 Z M 6.421875 -7.28125 "/></g></g></g><g fill="#fdfee9" fill-opacity="1"><g transform="translate(217.041723, 256.172707)"><g><path d="M 3.203125 -6.96875 L 4.453125 -6.96875 C 5.046875 -6.96875 5.484375 -7.113281 5.765625 -7.40625 C 6.054688 -7.707031 6.203125 -8.101562 6.203125 -8.59375 C 6.203125 -9.070312 6.054688 -9.441406 5.765625 -9.703125 C 5.484375 -9.972656 5.097656 -10.109375 4.609375 -10.109375 C 4.148438 -10.109375 3.769531 -9.984375 3.46875 -9.734375 C 3.164062 -9.492188 3.015625 -9.175781 3.015625 -8.78125 L 0.671875 -8.78125 C 0.671875 -9.394531 0.835938 -9.945312 1.171875 -10.4375 C 1.503906 -10.925781 1.96875 -11.304688 2.5625 -11.578125 C 3.164062 -11.859375 3.828125 -12 4.546875 -12 C 5.796875 -12 6.773438 -11.695312 7.484375 -11.09375 C 8.203125 -10.5 8.5625 -9.675781 8.5625 -8.625 C 8.5625 -8.082031 8.394531 -7.582031 8.0625 -7.125 C 7.726562 -6.675781 7.296875 -6.328125 6.765625 -6.078125 C 7.429688 -5.835938 7.925781 -5.476562 8.25 -5 C 8.582031 -4.53125 8.75 -3.96875 8.75 -3.3125 C 8.75 -2.257812 8.363281 -1.414062 7.59375 -0.78125 C 6.820312 -0.15625 5.804688 0.15625 4.546875 0.15625 C 3.359375 0.15625 2.390625 -0.148438 1.640625 -0.765625 C 0.890625 -1.390625 0.515625 -2.21875 0.515625 -3.25 L 2.875 -3.25 C 2.875 -2.800781 3.039062 -2.4375 3.375 -2.15625 C 3.707031 -1.875 4.117188 -1.734375 4.609375 -1.734375 C 5.160156 -1.734375 5.59375 -1.878906 5.90625 -2.171875 C 6.226562 -2.472656 6.390625 -2.863281 6.390625 -3.34375 C 6.390625 -4.53125 5.738281 -5.125 4.4375 -5.125 L 3.203125 -5.125 Z M 3.203125 -6.96875 "/></g></g></g><g fill="#fdfee9" fill-opacity="1"><g transform="translate(239.924686, 256.172707)"><g><path d="M 3.203125 -6.96875 L 4.453125 -6.96875 C 5.046875 -6.96875 5.484375 -7.113281 5.765625 -7.40625 C 6.054688 -7.707031 6.203125 -8.101562 6.203125 -8.59375 C 6.203125 -9.070312 6.054688 -9.441406 5.765625 -9.703125 C 5.484375 -9.972656 5.097656 -10.109375 4.609375 -10.109375 C 4.148438 -10.109375 3.769531 -9.984375 3.46875 -9.734375 C 3.164062 -9.492188 3.015625 -9.175781 3.015625 -8.78125 L 0.671875 -8.78125 C 0.671875 -9.394531 0.835938 -9.945312 1.171875 -10.4375 C 1.503906 -10.925781 1.96875 -11.304688 2.5625 -11.578125 C 3.164062 -11.859375 3.828125 -12 4.546875 -12 C 5.796875 -12 6.773438 -11.695312 7.484375 -11.09375 C 8.203125 -10.5 8.5625 -9.675781 8.5625 -8.625 C 8.5625 -8.082031 8.394531 -7.582031 8.0625 -7.125 C 7.726562 -6.675781 7.296875 -6.328125 6.765625 -6.078125 C 7.429688 -5.835938 7.925781 -5.476562 8.25 -5 C 8.582031 -4.53125 8.75 -3.96875 8.75 -3.3125 C 8.75 -2.257812 8.363281 -1.414062 7.59375 -0.78125 C 6.820312 -0.15625 5.804688 0.15625 4.546875 0.15625 C 3.359375 0.15625 2.390625 -0.148438 1.640625 -0.765625 C 0.890625 -1.390625 0.515625 -2.21875 0.515625 -3.25 L 2.875 -3.25 C 2.875 -2.800781 3.039062 -2.4375 3.375 -2.15625 C 3.707031 -1.875 4.117188 -1.734375 4.609375 -1.734375 C 5.160156 -1.734375 5.59375 -1.878906 5.90625 -2.171875 C 6.226562 -2.472656 6.390625 -2.863281 6.390625 -3.34375 C 6.390625 -4.53125 5.738281 -5.125 4.4375 -5.125 L 3.203125 -5.125 Z M 3.203125 -6.96875 "/></g></g></g><g fill="#fdfee9" fill-opacity="1"><g transform="translate(262.80765, 256.172707)"><g><path d="M 1.15625 -5.828125 L 1.84375 -11.84375 L 8.46875 -11.84375 L 8.46875 -9.875 L 3.765625 -9.875 L 3.46875 -7.328125 C 4.03125 -7.628906 4.625 -7.78125 5.25 -7.78125 C 6.382812 -7.78125 7.269531 -7.429688 7.90625 -6.734375 C 8.539062 -6.035156 8.859375 -5.054688 8.859375 -3.796875 C 8.859375 -3.035156 8.695312 -2.351562 8.375 -1.75 C 8.050781 -1.144531 7.585938 -0.675781 6.984375 -0.34375 C 6.390625 -0.0078125 5.679688 0.15625 4.859375 0.15625 C 4.148438 0.15625 3.488281 0.015625 2.875 -0.265625 C 2.257812 -0.554688 1.773438 -0.960938 1.421875 -1.484375 C 1.066406 -2.015625 0.878906 -2.617188 0.859375 -3.296875 L 3.1875 -3.296875 C 3.226562 -2.796875 3.394531 -2.410156 3.6875 -2.140625 C 3.988281 -1.867188 4.378906 -1.734375 4.859375 -1.734375 C 5.390625 -1.734375 5.796875 -1.921875 6.078125 -2.296875 C 6.367188 -2.679688 6.515625 -3.222656 6.515625 -3.921875 C 6.515625 -4.597656 6.347656 -5.113281 6.015625 -5.46875 C 5.679688 -5.832031 5.210938 -6.015625 4.609375 -6.015625 C 4.054688 -6.015625 3.601562 -5.867188 3.25 -5.578125 L 3.03125 -5.359375 Z M 1.15625 -5.828125 "/></g></g></g><path fill="#fdfee9" d="M 65.515625 192.363281 C 65.515625 192.363281 103.792969 161.972656 110.578125 164.363281 C 117.359375 166.753906 135.113281 138.855469 140.699219 143.441406 C 146.285156 148.023438 147.484375 156.589844 153.269531 152.808594 C 159.050781 149.019531 191.570312 113.746094 197.953125 120.921875 C 204.335938 128.09375 219.101562 148.023438 226.679688 146.628906 C 234.261719 145.234375 237.25 156.132812 242.640625 156.160156 C 248.023438 156.195312 253.8125 141.25 259.394531 144.835938 C 264.980469 148.421875 272.363281 155.597656 278.347656 160.777344 C 284.332031 165.957031 311.660156 193.261719 307.671875 192.363281 C 303.683594 191.46875 297.296875 180.308594 288.921875 180.109375 C 280.542969 179.910156 278.347656 176.722656 283.535156 182.101562 C 288.71875 187.480469 295.503906 194.855469 285.925781 186.886719 C 276.351562 178.914062 275.15625 180.90625 267.574219 173.929688 C 259.992188 166.953125 260.992188 163.167969 252.414062 161.972656 C 243.835938 160.777344 240.746094 159.082031 245.132812 163.867188 C 249.519531 168.648438 252.3125 172.734375 252.3125 172.734375 C 252.3125 172.734375 257.101562 179.910156 250.320312 172.734375 C 243.535156 165.558594 241.140625 162.96875 238.449219 161.972656 C 235.753906 160.976562 233.859375 155.894531 233.761719 155.199219 C 233.660156 154.5 233.0625 148.820312 228.574219 148.820312 C 224.085938 148.820312 222.6875 148.921875 222.6875 150.617188 C 222.6875 152.308594 218.199219 150.3125 216.804688 149.121094 C 215.410156 147.921875 196.257812 122.015625 194.5625 125.105469 C 192.863281 128.195312 193.863281 128.292969 193.863281 130.886719 C 193.863281 133.476562 199.449219 136.664062 201.742188 141.25 C 204.039062 145.832031 201.445312 141.445312 204.335938 147.125 C 207.230469 152.808594 210.023438 154.898438 203.039062 150.015625 C 196.058594 145.136719 193.964844 137.363281 190.871094 138.65625 C 187.777344 139.953125 190.371094 139.453125 188.777344 143.738281 C 187.183594 148.023438 190.273438 143.738281 190.171875 149.917969 C 190.074219 156.09375 199.25 154.550781 204.039062 162.023438 C 208.824219 169.496094 210.171875 170.09375 214.210938 172.484375 C 218.25 174.875 223.335938 178.914062 218.847656 176.671875 C 214.359375 174.429688 205.980469 173.679688 201.792969 170.242188 C 197.605469 166.804688 195.957031 168.152344 195.507812 171.585938 C 195.0625 175.027344 201.941406 173.832031 201.34375 177.117188 C 200.746094 180.40625 203.886719 179.359375 211.21875 188.027344 C 218.550781 196.699219 220.046875 195.652344 213.011719 192.363281 C 205.980469 189.078125 204.785156 184.144531 197.605469 182.351562 C 190.421875 180.554688 189.972656 178.914062 182.195312 176.820312 C 174.414062 174.726562 179.5 186.683594 173.214844 180.554688 C 166.933594 174.429688 159.003906 165.910156 154.664062 163.519531 C 150.324219 161.125 150.472656 162.917969 146.585938 159.332031 C 142.695312 155.746094 140 153.453125 141.648438 157.363281 C 143.292969 161.273438 146.734375 164.714844 148.679688 169.046875 C 150.625 173.382812 148.230469 172.113281 149.652344 174.203125 C 151.074219 176.296875 151.746094 176.746094 152.34375 178.613281 C 152.941406 180.484375 152.867188 180.632812 150.699219 178.464844 C 148.53125 176.296875 147.632812 176.222656 147.40625 174.726562 C 147.183594 173.234375 147.183594 175.027344 143.59375 172.636719 C 140 170.242188 138.355469 168.824219 134.464844 167.851562 C 130.574219 166.878906 131.546875 164.640625 129.304688 166.359375 C 127.058594 168.078125 126.984375 166.058594 126.238281 168.601562 C 125.488281 171.140625 129.152344 170.167969 131.097656 172.933594 C 133.042969 175.699219 130.277344 174.28125 136.1875 178.613281 C 142.097656 182.949219 139.027344 181.75 142.171875 184.519531 C 145.3125 187.28125 147.78125 187.28125 149.652344 190.421875 C 151.523438 193.558594 153.992188 197.742188 150.324219 193.859375 C 146.660156 189.972656 146.210938 189.523438 142.46875 189.226562 C 138.730469 188.925781 138.132812 191.394531 135.289062 188.628906 C 132.445312 185.863281 123.992188 186.386719 120.402344 182.425781 C 116.808594 178.464844 113.894531 173.007812 108.058594 175.398438 C 102.222656 177.789062 98.257812 172.859375 95.789062 176.074219 C 93.320312 179.285156 95.492188 176.371094 98.855469 180.257812 C 102.222656 184.144531 103.421875 183.394531 104.167969 184.964844 C 104.917969 186.535156 104.917969 185.414062 101.324219 184.144531 C 97.734375 182.875 99.457031 182.425781 97.734375 182.875 C 96.011719 183.320312 92.496094 177.34375 85.390625 182.050781 C 78.285156 186.757812 80.378906 182.875 75.367188 186.238281 C 70.355469 189.597656 63.59375 195.128906 65.515625 192.363281 " fill-opacity="1" fill-rule="nonzero"/></svg>